<svg xmlns="http://www.w3.org/2000/svg" width="64" height="64" fill="none" viewBox="0 0 64 64"><rect width="64" height="64" fill="#10151D" rx="32"/><path stroke="#C1FFD7" stroke-linecap="round" stroke-linejoin="round" stroke-width="5" d="M25 50.1552V23.047C25 22.8023 25.1772 22.5935 25.4188 22.5537L45.7293 19.2092C46.1796 19.1351 46.4857 19.6533 46.2034 20.0119L34.4553 34.9352C34.2928 35.1417 34.3178 35.4387 34.5125 35.6151L40.9797 41.4722C41.2344 41.7029 41.1859 42.1158 40.8847 42.2811L25.7406 50.5935C25.4074 50.7764 25 50.5353 25 50.1552Z"/><path stroke="#B098F7" stroke-linecap="round" stroke-linejoin="round" stroke-width="5" d="M24 49.1552V22.047C24 21.8023 24.1772 21.5935 24.4188 21.5537L44.7293 18.2092C45.1796 18.1351 45.4857 18.6533 45.2034 19.0119L33.4553 33.9352C33.2928 34.1417 33.3178 34.4387 33.5125 34.6151L39.9797 40.4722C40.2344 40.7029 40.1859 41.1158 39.8847 41.2811L24.7406 49.5935C24.4074 49.7764 24 49.5353 24 49.1552Z"/><path stroke="#fff" stroke-linecap="round" stroke-linejoin="round" stroke-width="5" d="M22 47.1552V20.047C22 19.8023 22.1772 19.5935 22.4188 19.5537L42.7293 16.2092C43.1796 16.1351 43.4857 16.6533 43.2034 17.0119L31.4553 31.9352C31.2928 32.1417 31.3178 32.4387 31.5125 32.6151L37.9797 38.4722C38.2344 38.7029 38.1859 39.1158 37.8847 39.2811L22.7406 47.5935C22.4074 47.7764 22 47.5353 22 47.1552Z"/></svg>