<svg xmlns="http://www.w3.org/2000/svg" width="100" height="100" fill="none" viewBox="0 0 100 100"><g clip-path="url(#clip0_654_17710)"><path fill="#fff" d="M50 100C77.6142 100 100 77.6142 100 50C100 22.3858 77.6142 0 50 0C22.3858 0 0 22.3858 0 50C0 77.6142 22.3858 100 50 100Z"/><path fill="url(#paint0_linear_654_17710)" d="M78.7125 42.1937V26.5687H70.9V18.7562H55.2781V10.9437H39.6531V18.7562H24.0281V26.5687H16.2156V73.4406H24.0281V81.2531H39.6531V89.0625H55.275V81.2531H70.9V73.4406H78.7125V57.8156H63.0906V65.6281H55.2781V73.4406H39.6531V65.6281H31.8468V34.3812H39.6593V26.5687H55.2812V34.3812H63.0937V42.1937H78.7125Z"/><path fill="#1682FE" d="M60.7187 26.175H55.2781V34.3782H60.7187V26.175ZM45.0812 10.9375H39.6406V19.1406H45.0812V10.9375Z"/><path fill="#60D8A4" d="M29.4625 18.75H24.0219V26.9531H29.4625V18.75Z"/><path fill="#F4BB3B" d="M21.7032 50H16.2063V73.4344H21.7032V50Z"/><path fill="#60D8A4" d="M21.7032 26.5687H16.2063V50.0031H21.7032V26.5687Z"/><path fill="#1682FE" d="M68.525 33.9844H63.0844V42.1875H68.525V33.9844Z"/><path fill="#FF5A5A" d="M68.5219 57.8125H63.0813V66.0156H68.5219V57.8125ZM60.7187 65.625H55.2781V73.8281H60.7187V65.625ZM45.0844 80.8562H39.6438V89.0593H45.0844V80.8562Z"/><path fill="#F4BB3B" d="M29.4594 73.0469H24.0188V81.25H29.4594V73.0469Z"/><path fill="#3A3A3A" d="M83.7938 42.1875V26.5625H75.9781V18.75H60.3563V10.9375H44.7313V18.75H29.1063V26.5625H21.2906V73.4375H29.1031V81.25H44.725V89.0594H60.35V81.25H75.9781V73.4375H83.7938V57.8125H68.1688V65.625H60.3563V73.4375H44.7313V65.625H36.9188V34.375H44.7313V26.5625H60.3563V34.375H68.1688V42.1875H83.7938Z"/></g><defs><linearGradient id="paint0_linear_654_17710" x1="59.6499" x2="22.4904" y1="20.2412" y2="78.297" gradientUnits="userSpaceOnUse"><stop stop-color="#1682FE"/><stop offset="0.3" stop-color="#60D8A4"/><stop offset="0.7" stop-color="#FCA75B"/><stop offset="1" stop-color="#FF5A5A"/></linearGradient><clipPath id="clip0_654_17710"><path fill="#fff" d="M0 0H100V100H0z"/></clipPath></defs></svg>